HIERARCHY
ROOT Hips
{
	OFFSET 190.886993 90.533302 318.949097
	CHANNELS 6 Xposition Yposition Zposition Xrotation Yrotation Zrotation 
	JOINT RightUpLeg
	{
		OFFSET 0.103459 1.857839 10.548500
		CHANNELS 3 Xrotation Yrotation Zrotation
		JOINT RightLeg
		{
			OFFSET 43.500004 -0.000053 -0.000011
			CHANNELS 3 Xrotation Yrotation Zrotation
			JOINT RightFoot
			{
				OFFSET 42.372192 0.000015 -0.000008
				CHANNELS 3 Xrotation Yrotation Zrotation
				JOINT RightToe
				{
					OFFSET 17.300007 0.000002 0.000013
					CHANNELS 3 Xrotation Yrotation Zrotation
					End Site
					{
						OFFSET 0.000000 0.000000 0.000000
					}
				}
			}
		}
	}
	JOINT LeftUpLeg
	{
		OFFSET 0.103460 1.857826 -10.548500
		CHANNELS 3 Xrotation Yrotation Zrotation
		JOINT LeftLeg
		{
			OFFSET 43.500046 -0.000019 0.000011
			CHANNELS 3 Xrotation Yrotation Zrotation
			JOINT LeftFoot
			{
				OFFSET 42.372261 0.000004 0.000012
				CHANNELS 3 Xrotation Yrotation Zrotation
				JOINT LeftToe
				{
					OFFSET 17.299995 -0.000004 0.000006
					CHANNELS 3 Xrotation Yrotation Zrotation
					End Site
					{
						OFFSET 0.000000 0.000000 0.000000
					}
				}
			}
		}
	}
	JOINT Spine
	{
		OFFSET 6.901963 -2.603745 -0.000005
		CHANNELS 3 Xrotation Yrotation Zrotation
		JOINT Spine1
		{
			OFFSET 12.588102 0.000012 0.000012
			CHANNELS 3 Xrotation Yrotation Zrotation
			JOINT Spine2
			{
				OFFSET 12.343202 0.000010 -0.000009
				CHANNELS 3 Xrotation Yrotation Zrotation
				JOINT Neck
				{
					OFFSET 25.832901 -0.000008 0.000006
					CHANNELS 3 Xrotation Yrotation Zrotation
					JOINT Head
					{
						OFFSET 11.766603 0.000007 -0.000001
						CHANNELS 3 Xrotation Yrotation Zrotation
						End Site
						{
							OFFSET 0.000000 0.000000 0.000000
						}
					}
				}
				JOINT RightShoulder
				{
					OFFSET 19.745903 -1.480391 6.000108
					CHANNELS 3 Xrotation Yrotation Zrotation
					JOINT RightArm
					{
						OFFSET 11.284125 -0.000031 -0.000021
						CHANNELS 3 Xrotation Yrotation Zrotation
						JOINT RightForeArm
						{
							OFFSET 33.000046 0.000024 0.000034
							CHANNELS 3 Xrotation Yrotation Zrotation
							JOINT RightHand
							{
								OFFSET 25.200014 0.000020 0.000007
								CHANNELS 3 Xrotation Yrotation Zrotation
								End Site
								{
									OFFSET 0.000000 0.000000 0.000000
								}
							}
						}
					}
				}
				JOINT LeftShoulder
				{
					OFFSET 19.746098 -1.480371 -6.000075
					CHANNELS 3 Xrotation Yrotation Zrotation
					JOINT LeftArm
					{
						OFFSET 11.284128 -0.000021 -0.000009
						CHANNELS 3 Xrotation Yrotation Zrotation
						JOINT LeftForeArm
						{
							OFFSET 33.000095 0.000034 0.000006
							CHANNELS 3 Xrotation Yrotation Zrotation
							JOINT LeftHand
							{
								OFFSET 25.199781 0.000147 0.000427
								CHANNELS 3 Xrotation Yrotation Zrotation
								End Site
								{
									OFFSET 0.000000 0.000000 0.000000
								}
							}
						}
					}
				}
			}
		}
	}
}
MOTION
Frames: 10
Frame Time: 0.033333
382.048096 83.530907 -460.380707 92.550696 3.534369 -83.823182 148.622608 6.094607 163.441495 -49.383863 2.213863 -2.558268 96.957663 3.142503 14.751966 21.454558 0.003106 0.000019 167.329307 8.839606 -164.697239 -83.834316 -2.184701 2.611052 74.214766 0.250187 6.746596 21.454555 -0.003089 -0.000003 6.234627 -0.129766 1.687833 2.452088 -0.294309 3.372618 2.134596 -0.274094 3.374336 7.453539 3.072826 1.694430 -10.263543 -1.574682 2.678249 -168.709962 -74.261915 -12.961057 20.345436 57.772001 38.612289 -67.588909 -13.793453 2.344685 -3.393424 -11.451198 9.399372 -125.671547 87.575046 56.184627 -19.630498 -67.387548 -12.562145 -96.317702 3.369302 -2.821510 -9.008344 4.889455 -33.601563 
384.000702 86.210373 -467.180786 92.682539 3.646454 -80.688727 154.872818 6.549687 170.304442 -45.291128 1.266414 -3.622453 95.199170 3.745021 11.651213 21.454562 0.003119 0.000020 159.400141 9.135292 -166.366770 -82.484240 -3.179740 5.687023 75.613247 -2.505349 4.870887 21.454555 -0.003087 0.000003 6.218549 0.026416 1.301765 2.424570 0.026267 2.603784 2.106821 0.041858 2.603572 6.813031 2.933449 2.990974 -10.203117 -2.461699 4.268618 -170.702028 -74.874316 -10.918950 13.838723 57.283157 35.567841 -72.192128 -12.691164 2.457952 -3.705634 -7.625091 13.423145 -134.424461 86.648237 47.452247 -6.215142 -64.865460 -25.567640 -97.118166 3.253116 -2.848984 -9.289971 5.907244 -31.258982 
385.985107 88.792290 -474.209900 93.374218 2.992943 -78.536923 160.498572 4.720987 174.113120 -43.019701 1.034157 -3.929300 90.342789 4.052610 8.912922 21.454557 0.003117 0.000017 154.045013 8.615901 -168.187644 -75.468563 -4.519387 8.016344 74.114164 -3.642768 6.255723 21.454548 -0.003098 0.000001 6.329346 0.323965 1.037746 2.651565 0.624638 2.082532 2.333665 0.637073 2.078709 6.518695 3.047788 4.656796 -9.904947 -4.149455 6.493192 -172.171966 -76.518268 -9.422996 11.825693 57.193163 33.855622 -79.062739 -10.122924 2.572185 -2.449610 -4.832060 18.066308 -135.086648 86.329070 46.803608 5.143784 -61.941626 -36.098205 -98.131705 2.958245 -2.873430 -8.436044 6.835225 -28.454262 
388.010803 90.833344 -481.512299 93.516382 2.521680 -76.680123 164.468961 2.576700 175.314113 -43.016948 1.562367 -3.351881 83.588190 3.678417 6.371869 21.454560 0.003109 0.000018 150.817229 8.390897 -169.974517 -64.314011 -5.752988 9.055235 70.511574 -4.438735 5.543275 21.454555 -0.003100 0.000004 6.382688 0.463033 0.768072 2.758754 0.908060 1.546771 2.440737 0.917242 1.541263 6.413548 3.720310 6.652841 -9.652189 -6.442165 9.307909 -173.343999 -77.306595 -8.232047 13.379912 55.285358 32.578209 -88.086252 -6.000679 2.681125 -2.943998 -2.884847 21.355278 -127.899623 86.388868 54.021059 14.323136 -59.602710 -44.214263 -99.396724 2.740843 -2.914415 -7.679543 6.979565 -27.802855 
389.950592 91.885178 -489.150513 93.236242 2.459321 -74.593807 166.482951 0.120814 175.081354 -45.814546 1.916781 -2.477767 77.505333 2.475087 2.798798 21.454558 0.003104 0.000019 149.945725 9.244719 -172.483423 -50.557596 -5.259684 9.034634 70.173917 -4.152850 6.416294 21.454550 -0.003092 -0.000005 6.295764 0.355865 0.521474 2.581906 0.700348 1.050622 2.263843 0.706531 1.046368 6.217359 4.876201 8.574102 -8.376332 -8.649466 11.985340 -171.531021 -77.334209 -10.082992 14.835036 51.844230 32.255005 -97.013350 -2.514535 2.836576 -3.809113 -3.975666 21.615010 -127.385009 86.272167 54.544894 22.858632 -57.131117 -51.369276 -101.158995 2.498039 -2.975572 -8.598867 7.361959 -27.119268 
391.999390 92.226288 -496.876404 93.463359 2.455330 -71.923825 166.165348 -3.085597 174.539214 -51.764665 2.374202 -2.315251 72.763392 1.741048 0.463077 21.454560 0.003105 0.000020 150.353255 10.338904 -176.486761 -35.870029 -2.749467 8.057864 65.702568 -2.886651 7.522320 21.454555 -0.003100 -0.000003 6.120398 0.293431 0.312450 2.229565 0.581019 0.630345 1.911470 0.584670 0.626822 7.241274 5.451148 10.527306 -8.162868 -10.149003 14.436851 -170.006933 -76.571263 -11.636010 15.696318 47.177438 33.866489 -103.844905 -1.648230 3.080868 -5.793022 -6.308256 18.731888 -140.345265 86.140345 41.526276 30.452620 -54.064724 -56.826368 -103.345106 2.130772 -3.046486 -8.730520 8.658587 -24.512359 
394.038300 91.340851 -504.507690 93.598276 1.880081 -68.378178 164.363421 -5.731104 175.036944 -60.559210 3.638532 -3.597886 71.663731 1.788777 -2.070243 21.454562 0.003110 0.000016 151.060835 11.686090 -179.711238 -26.288599 -1.940951 6.150433 59.536976 -0.495729 8.907321 21.454553 -0.003089 -0.000001 6.085208 0.159772 0.223270 2.158210 0.315510 0.449410 1.840111 0.318085 0.447496 8.195062 6.344038 12.017346 -8.588806 -11.706043 16.547530 -171.314955 -76.926365 -10.301988 16.621351 43.965193 34.900166 -107.843305 -1.278860 3.231339 -6.719917 -7.892889 16.383942 -141.217631 86.016848 40.654481 37.943313 -52.130343 -61.850116 -105.856908 1.610936 -3.120555 -7.665024 10.272832 -18.433292 
396.248993 89.373596 -512.036926 93.993553 0.851712 -64.241822 160.701169 -8.673294 176.814377 -71.443294 4.631491 -6.224516 73.147747 3.206095 -3.408011 21.454562 0.003108 0.000015 150.970840 12.775701 179.041060 -24.561348 -2.461729 3.657276 55.081589 1.119783 7.593228 21.454553 -0.003094 -0.000001 6.172965 0.105529 0.278842 2.333591 0.205626 0.559695 2.015491 0.208865 0.558446 8.636586 6.614151 13.125952 -9.237656 -12.165328 17.920652 -173.364995 -76.475224 -8.203984 16.679254 41.089947 34.688219 -107.964295 -1.186109 3.230172 -6.928553 -9.347653 13.649617 -139.514250 85.721306 42.380757 44.000926 -50.830582 -65.215022 -107.948606 1.241345 -3.186019 -7.679652 10.921865 -15.314133 
398.356598 86.343613 -519.462891 93.900607 -1.621814 -59.843023 156.683105 -11.082596 179.954147 -82.993472 4.479723 -8.710908 78.897025 5.823619 -0.421319 21.454558 0.003107 0.000012 151.657438 14.316494 179.951115 -32.225802 -2.034454 1.237287 57.004499 6.748745 15.849370 21.454550 -0.003093 -0.000001 6.628089 0.072528 0.449016 3.243847 0.132710 0.899863 2.925794 0.138010 0.899038 9.697190 7.963699 14.060542 -11.254370 -13.361387 19.662726 -173.725944 -76.937600 -7.838983 16.764160 40.390945 33.394550 -105.358605 -1.466167 3.135142 -6.724497 -9.528519 14.437504 -141.941412 85.244859 39.958321 46.166519 -50.257116 -65.474733 -109.198298 1.045381 -3.226549 -7.971309 10.410623 -15.882456 
400.653412 82.605591 -526.874390 93.584185 -4.438842 -54.745786 150.872513 -13.325394 -177.031277 -93.631477 4.083394 -9.817162 82.785007 6.904886 1.177298 21.454563 0.003114 0.000020 154.829160 16.751799 -175.582963 -45.369631 1.845838 -4.278637 81.643273 7.331557 18.105382 21.454551 -0.003091 0.000001 7.200575 0.201961 0.534177 4.390108 0.383754 1.075568 4.072061 0.390113 1.073226 9.939080 7.767868 14.892300 -14.068458 -12.891928 20.758183 -170.333006 -77.163174 -11.305049 15.589637 41.303288 31.927644 -99.944041 -2.064423 2.936254 -7.502477 -12.807234 15.568059 -132.409310 85.575925 49.535008 44.034213 -51.522210 -63.764713 -108.580904 1.259542 -3.214723 -8.255571 9.717845 -19.111822 
